# xmcd CD database file
#
# Track frame offsets:
#	150
#	13481
#	55026
#	68340
#	82252
#	92868
#	108824
#	125746
#
# Disc length: 1837 seconds
#
# Revision: 0
# Processed by: cddbd v1.5.2PL0 Copyright (c) Steve Scherf et al.
# Submitted via: CDex 1.70
#
DISCID=67072b08
DTITLE=Amaya - Amayaguena- Moon Over Cairo
DYEAR=1900
DGENRE=New Age
TTITLE0=Amaya
TTITLE1=Malguena Moods
TTITLE2=Finale
TTITLE3=Fast Masmoudi (4/4)
TTITLE4=Fazzani (2/4)
TTITLE5=Said/ Slow Massmoudi/ Saidi
TTITLE6=Disco/ Maksoum (4/4)
TTITLE7=Samaii (10/8)
EXTD=
EXTT0=
EXTT1=
EXTT2=
EXTT3=
EXTT4=
EXTT5=
EXTT6=
EXTT7=
PLAYORDER=
